<?xml version="1.0" encoding="UTF-8" standalone="no"?>
<svg style="enable-background:new 0 0 128 128" viewBox="0 0 128 128" xml:space="preserve" version="1.1" id="svg16"
    sodipodi:docname="1F988.svg" inkscape:version="1.2 (dc2aedaf03, 2022-05-15)"
    xmlns:inkscape="http://www.inkscape.org/namespaces/inkscape"
    xmlns:sodipodi="http://sodipodi.sourceforge.net/DTD/sodipodi-0.dtd" xmlns="http://www.w3.org/2000/svg"
    xmlns:svg="http://www.w3.org/2000/svg">
    <defs id="defs20" />
    <sodipodi:namedview id="namedview18" pagecolor="#505050" bordercolor="#eeeeee" borderopacity="1"
        inkscape:showpageshadow="0" inkscape:pageopacity="0" inkscape:pagecheckerboard="0" inkscape:deskcolor="#505050"
        showgrid="false" inkscape:zoom="5.66" inkscape:cx="38" inkscape:cy="44" inkscape:window-width="1920"
        inkscape:window-height="1009" inkscape:window-x="-8" inkscape:window-y="-8" inkscape:window-maximized="1"
        inkscape:current-layer="svg16" />
    <path
        d="m 30.8,22.8 c -15.5,7.1 -26.73,18.3 -26.64,21.1 c 0,1.4 0.77,3.9 2.82,6.1 c 1.21,1.3 4.42,3.6 6.72,3.7 c 2.2,0.2 18.5,-10.7 18.5,-10.7 l 16.2,-2.2 l 9.8,23.5 c 0,0 3.3,4.6 7.8,8.4 c 4.5,3.8 8.8,5.1 9.8,4.3 c 1,-0.9 -1.9,-6.6 -2.1,-8.1 c -0.3,-1.9 -1.1,-6.7 3.7,-6 c 4.7,0.7 13.6,4.2 13.6,9.4 c 0,5.2 -3.5,11 -13.5,11 c -10,0 -24.1,-3.2 -30.5,-3 c -6.5,0.3 -12.3,0.9 -18.2,3.3 c -4.4,1.7 -9.3,5 -9.2,5.5 c 0.2,0.4 5.7,2.2 12.2,3.1 c 6.4,0.8 19,0.7 21.1,3.8 c 2.1,3.1 2.6,8 1.9,14 c -0.7,7 -0.4,12 -0.2,12 c 0.1,0 5.6,-3 8.4,-8 c 4.5,-8 4.5,-17.3 6.2,-19.3 c 1.7,-2 8.7,-2.5 14.4,-3.2 c 5.8,-0.8 38.4,-2.2 38.4,-35.1 c 0,-26.5 -24.8,-32.4 -25.3,-32.9 c -0.6,-0.6 -1.5,-4.7 0.4,-8.5 c 1.5,-2.9 3.9,-7.45 2.9,-8.58 c -0.7,-1.4 -9.8,0.14 -16.6,3.68 c -6.7,3.5 -11,8 -11,8 c 0,0 -25.9,-2.6 -41.6,4.7 z"
        style="fill:#4a8a9a;fill-opacity:1" id="path2" inkscape:label="path2"
        sodipodi:nodetypes="sssscccssssssssssssssssssssscs" />
    <path
        d="M34.71 36.82c5.13-2.27 13.53-4.11 19.85-4.5 11.33-.7 20.98.63 20.98.63s4.12 8.59 7.46 12.88c5.84 7.5 14.25 13.3 15.38 11.68.94-1.35.18-8.45-1.3-12.81-.73-2.15-3.1-7.88-3.1-7.88s10.28.84 16.19 9.29c5.91 8.45 8.3 26.33-4.65 33.93-11.26 6.62-17.6 5.63-17.6 5.63s6.75-7.46 5.68-12.72c-1.13-5.54-3.57-7.04-7.79-7.84-2.67-.5-25.58 0-31.63-.14s-15.16-.56-21.45-2.49c-3.01-.92-5.16-2.35-5.16-2.35l.14-5.07s-5.16 1.03-8.12.75-7.13-1.97-7.41-2.39c-.28-.42 3.33-3.58 6.34-5.91 3.76-2.9 10.14-8.01 16.19-10.69z"
        style="fill:#d8d8d8;fill-opacity:1" id="path4" />
    <path
        d="m 35.1,55 c -3.5,3.3 -6.9,5.4 -7.5,5.2 c -2.9,-6.4 -4.1,-2.5 -8.8,-4.5 c 2.8,-0.7 6.9,-2.6 9.7,-4.7 c 1.9,-1.4 5.6,-4.3 6.7,-5.1 c 1,-0.6 5,-3.3 5.9,-2.9 c 0.9,0.3 -3.6,9.8 -6,12 z"
        style="fill:#eec3b7;fill-opacity:1" id="path6" sodipodi:nodetypes="cccsszc" />
    <path
        d="m 39.5,36 c 0.4,1.5 -1.5,3.4 -4.5,4.1 c -2.4,0.6 -4.8,0.1 -5.3,-1.4 c -0.4,-1.4 1.2,-3.4 3.7,-4.2 c 3.9,-1.2 5.6,0 6.1,1.5 z"
        style="fill:#2f2f2f;stroke-width:0.862855;stroke:#644444;stroke-opacity:1" id="path8" />
    <path
        d="m 37.3,35.4 c 0,0.4 -0.3,0.9 -1,1.1 c -0.6,0.2 -1,0 -1.2,-0.4 c -0.1,-0.3 0.3,-0.9 0.8,-1.1 c 0.9,-0.3 1.3,0 1.4,0.4 z"
        style="fill:#aaa;fill-opacity:1;stroke:none;stroke-width:0.20943;stroke-opacity:1" id="path8-5" />
    <path
        d="m 29.5,53.8 c 0.9,-0.8 -0.9,-2.9 -0.9,-2.9 l -2.1,1.5 c 0,0 1.8,2.4 3,1.4 z m 5.2,-3.8 c 0.8,-0.8 -1,-3 -1,-3 l -2.3,1.7 c 0,0 2,2.3 3.3,1.3 z m 2.1,-1.4 c -0.7,0.9 1.2,2.6 1.2,2.6 c 0,0 1.4,-2.2 1.2,-2.4 c -0.2,-0.1 -1.3,-1.4 -2.4,-0.2 z m -3.7,4 c -0.7,0.9 1,3.2 1.3,3.1 c 0.3,-0.1 2,-1.9 2,-1.9 c 0,0 -2.3,-2.4 -3.3,-1.2 z"
        style="fill:#fffefd" id="path10" sodipodi:nodetypes="scssscssscsssscs" />
    <path
        d="M65.17 25.42c-1.13.75-.38 2.35.28 3.66s1.08 2.51 1.15 4.29c.06 1.6-.35 4.48-.54 5.47-.17.91-.78 2.9.56 3.24 1.69.42 2.16-.89 2.53-2.16.49-1.65.74-5.01.66-6.71-.19-3.64-1.41-5.82-1.97-6.66s-1.57-1.87-2.67-1.13zm8.21 2.25c-.75.6 0 2.39.33 3.19.33.8.49 1.92.49 3.07 0 .8-.16 2.65-.26 3.68-.14 1.54-.06 2.46 1.08 2.67 1.78.33 1.85-2.06 2.02-3.05.13-.79.25-3.39.15-4.61-.09-1.22-.67-2.99-1.37-4.07-.57-.85-1.5-1.63-2.44-.88zm-15.72-2.95c-1.54.79.14 3.43.56 4.32s1.03 2.86.99 4.93c-.05 2.06-.21 4.18-.56 5.33-.31 1-1.22 2.7-.52 3.4 1.03 1.03 2.69-.04 3.26-1.71.84-2.46 1.06-4.48.96-7.67-.12-4.29-2.39-9.78-4.69-8.6z"
        style="fill:#606568" id="path12" />
    <path
        d="M28.89 56.3c-.76.89.89 2.96.89 2.96l2.3-1.6s-2.16-2.57-3.19-1.36zm9.95-10c.87-.78-.61-2.44-.61-2.44s-2.11 1.27-2.02 1.41c.21.3 1.69 1.88 2.63 1.03z"
        style="fill:#fffefd" id="path14" />
</svg>